@startuml spotify

entity Artist {
  * id : VARCHAR
  --
  * name : VARCHAR
  instagram : VARCHAR
  facebook : VARCHAR
  twitter : VARCHAR
  wikipedia : VARCHAR
  bio : TEXT 
}

entity Album {
  * id : VARCHAR
  --
  * title : VARCHAR
  * release : YEAR
  * image : VARCHAR

}

entity Song {
  * id : VARCHAR
  --
  * album_id : VARCHAR
  * title : VARCHAR
  * duration : INT
}

entity Playlist_Category {
  * id : VARCHAR
  --
  * name : VARCHAR
  * image : VARCHAR
  * icon : VARCHAR
}

entity Playlist {
  * id : VARCHAR
  --
  * name : VARCHAR
  description : VARCHAR
  image : VARCHAR
  category_id : VARCHAR
  * user_id : VARCHAR
}

entity Podcast_Category {
  * id : VARCHAR
  --
  * name : VARCHAR
  * image : VARCHAR
  * icon : VARCHAR
}

entity Podcast {
  * id : VARCHAR
  --
  * name : VARCHAR
  about : VARCHAR
  image : VARCHAR
  category_id : VARCHAR
  * user_id : VARCHAR
}

entity Episode {
  * id : VARCHAR
  --
  * podcast_id : VARCHAR
  * title : VARCHAR
  description : TEXT
  published_at : DATE
  duration : INT
}

entity User {
  * id : VARCHAR
  --
  * email : VARCHAR
  * name : VARCHAR
  birthday : DATE
}

entity Concert {
  * id : VARCHAR
  --
  * event_at : DATETIME
  * location : VARCHAR
  lon : DOUBLE 
  lat : DOUBLE
  ' longitude and latitude for geolocation
}

Artist }|--|{ Album : Has
Album ||--|{ Song : Contains
Artist }|--|{ Song : Sings
Playlist_Category |o--|{ Playlist : Contains
User ||--o{ Playlist : Create
Playlist }o--o{ Song : Contains
Podcast_Category |o--|{ Podcast : Contains
User ||--o{ Podcast : Create
Podcast ||--o{ Episode : Contains
Artist }|--o{ Concert : Perform
User }o--o{ Artist : Follow
User }o--o{ Song : Like
User }o--o{ Playlist : Follow


@enduml